<svg id="Layer_1" data-name="Layer 1" xmlns="http://www.w3.org/2000/svg" viewBox="0 0 1000 1000"><defs><style>.cls-1{fill:#b5cde1;}</style></defs><title>TGIST_SecondaryLogo_Light</title><path class="cls-1" d="M806.9,377.37c0.22-3.59.29-18.95,0-23-6.31-89.27-80.77-160-171.61-160H364.93c-93.18,0-169.12,74.41-172,166.89-0.06,1.79,0,8.48,0,10.07V628.67c0,1.59-.06,8.28,0,10.07,2.86,92.5,78.8,166.91,172,166.91H635.29c90.84,0,165.31-70.76,171.61-160,0.29-4.05.22-19.41,0-23V377.37ZM634.85,215.7c79.51,0,144.15,62,149.79,140.12l-247.57.07A173.46,173.46,0,0,0,448.42,215.7H634.85ZM785.31,377.38V517.5H645.2V377.43Zm-161.7.06V517.53l-92.53.79-44.44-29.63a171.54,171.54,0,0,0,50.41-111.23h86.56ZM364.94,215.7c83.2,0,150.88,67.7,150.88,150.9S448.14,517.5,364.94,517.5,214,449.8,214,366.6,281.72,215.7,364.94,215.7ZM214,450.07a172.39,172.39,0,0,0,29.19,38.62L214,508.12V450.07Zm0,186V567.21l9.91,16.52,120.72,201.2C271.09,774.89,214,712.33,214,636.07ZM354.14,758.83L237,563.63l117.11,76.59V758.83ZM222.68,528.28L260,503.4a172.13,172.13,0,0,0,209.85,0l37.32,24.88L364.94,623.11ZM374.37,642.74l118.33-78.88L375.6,759Zm410.94-6.67c0,83.2-67.68,150.9-150.88,150.9H384L485.34,618l47.38-79H785.31v97Z"/><path class="cls-1" d="M364.94,431.28a64.68,64.68,0,1,0-64.7-64.68A64.76,64.76,0,0,0,364.94,431.28Zm0-107.8a43.11,43.11,0,1,1-43.12,43.11A43.15,43.15,0,0,1,364.94,323.48Z"/></svg>