<svg id="Layer_1" data-name="Layer 1" xmlns="http://www.w3.org/2000/svg" viewBox="0 0 32 32"><defs><style>.cls-1{fill:#036;}.cls-2{fill:#fff;}</style></defs><title>TGIST_Favicon_32px</title><rect class="cls-1" width="32" height="32" rx="6" ry="6"/><path class="cls-2" d="M28,11.21c0-.14,0-0.28,0-0.42s0-.32,0-0.48a6.73,6.73,0,0,0-6.7-6.25H10.72A6.73,6.73,0,0,0,4,10.58c0,0.07,0,.14,0,0.21S4,10.91,4,11V21c0,0.06,0,.12,0,0.18s0,0.14,0,.21a6.73,6.73,0,0,0,6.71,6.52H21.28A6.73,6.73,0,0,0,28,21.68c0-.16,0-0.32,0-0.48s0-.28,0-0.42V11.21ZM21.26,4.9a5.88,5.88,0,0,1,5.85,5.47H17.44A6.77,6.77,0,0,0,14,4.9h7.28Zm5.87,6.31v5.47H21.66V11.22h5.47Zm-6.31,0v5.47l-3.61,0-1.73-1.16a6.7,6.7,0,0,0,2-4.34h3.38ZM10.72,4.9a5.89,5.89,0,1,1-5.89,5.89A5.9,5.9,0,0,1,10.72,4.9ZM4.83,14.05A6.73,6.73,0,0,0,6,15.56l-1.14.76V14.05Zm0,7.26V18.62l0.39,0.64,4.71,7.85A5.88,5.88,0,0,1,4.83,21.31ZM10.3,26.1L5.73,18.48l4.57,3V26.1Zm-5.13-9,1.46-1a6.72,6.72,0,0,0,8.19,0l1.46,1-5.55,3.7Zm5.92,4.47,4.62-3.08-4.57,7.62Zm16-.26a5.9,5.9,0,0,1-5.89,5.89H11.47l4-6.59,1.85-3.08h9.86v3.79Z"/><path class="cls-2" d="M10.72,13.32A2.52,2.52,0,1,0,8.2,10.79,2.53,2.53,0,0,0,10.72,13.32Zm0-4.21A1.68,1.68,0,1,1,9,10.79,1.68,1.68,0,0,1,10.72,9.11Z"/></svg>